<?xml version="1.0" standalone="no"?>
<!DOCTYPE svg PUBLIC "-//W3C//DTD SVG 20010904//EN"
 "http://www.w3.org/TR/2001/REC-SVG-20010904/DTD/svg10.dtd">
<svg version="1.0" xmlns="http://www.w3.org/2000/svg"
 width="1024.000000pt" height="1024.000000pt" viewBox="0 0 1024.000000 1024.000000"
 preserveAspectRatio="xMidYMid meet">

<g transform="translate(0.000000,1024.000000) scale(0.100000,-0.100000)"
fill="#000000" stroke="none">
<path d="M2351 7699 c-133 -22 -224 -98 -244 -204 l-6 -30 150 3 c163 4 250
-8 394 -55 164 -53 319 -139 398 -218 50 -52 80 -119 172 -385 128 -372 211
-524 372 -685 186 -185 431 -311 706 -364 239 -46 580 -48 892 -5 375 52 737
150 1141 310 296 117 736 315 742 334 11 32 -305 -21 -847 -141 -741 -164
-891 -186 -1245 -176 -175 5 -229 10 -316 30 -219 51 -378 121 -517 226 -192
145 -316 325 -428 621 -62 166 -124 282 -186 352 -212 241 -832 444 -1178 387z
m279 -17 c3 -4 34 -9 70 -11 63 -3 271 -51 307 -70 10 -6 55 -24 100 -40 73
-28 230 -105 243 -120 3 -3 19 -13 35 -21 39 -19 176 -156 195 -195 8 -16 20
-35 26 -42 6 -6 24 -42 39 -80 15 -37 33 -81 40 -98 7 -16 25 -64 39 -105 99
-277 291 -513 533 -651 31 -18 50 -35 47 -41 -4 -7 -2 -8 5 -4 10 6 104 -24
136 -44 6 -4 37 -14 70 -23 246 -69 410 -85 697 -68 106 6 204 13 218 16 30 6
44 9 175 31 55 9 129 23 165 31 363 80 447 96 467 89 8 -3 12 -2 9 3 -6 9 11
14 169 49 77 18 145 30 205 37 8 1 22 4 30 8 8 4 45 13 82 21 49 10 70 10 79
2 9 -8 10 -8 6 0 -5 8 7 14 33 18 136 21 126 21 110 -3 -8 -12 -64 -44 -125
-72 -60 -28 -123 -57 -140 -64 -118 -55 -226 -96 -236 -89 -7 4 -9 3 -5 -4 8
-13 -29 -26 -45 -16 -7 4 -9 3 -6 -3 7 -11 5 -13 -153 -71 -150 -56 -182 -66
-210 -64 -18 1 -21 -1 -11 -7 14 -9 -18 -21 -230 -81 -150 -42 -280 -72 -287
-66 -3 3 -12 1 -19 -6 -8 -6 -36 -15 -61 -19 -26 -4 -71 -12 -100 -18 -162
-33 -322 -46 -602 -45 -323 0 -432 14 -630 80 -198 67 -365 169 -501 306 -119
121 -271 353 -255 393 3 8 0 14 -5 12 -13 -2 -39 63 -126 318 -81 237 -118
310 -194 378 -74 67 -224 145 -364 190 -162 53 -214 61 -383 62 l-152 0 6 30
c13 65 90 135 172 155 101 26 316 33 332 12z"/>
<path d="M2330 7664 c0 -3 7 -12 15 -21 8 -8 13 -19 10 -24 -4 -5 -1 -9 4 -9
19 0 12 35 -9 48 -11 7 -20 10 -20 6z"/>
<path d="M2381 7654 c0 -11 3 -14 6 -6 3 7 2 16 -1 19 -3 4 -6 -2 -5 -13z"/>
<path d="M2446 7642 c-3 -5 1 -9 9 -9 8 0 12 4 9 9 -3 4 -7 8 -9 8 -2 0 -6 -4
-9 -8z"/>
<path d="M2606 7638 c3 -5 10 -6 15 -3 13 9 11 12 -6 12 -8 0 -12 -4 -9 -9z"/>
<path d="M2390 7620 c-9 -6 -10 -10 -3 -10 6 0 15 5 18 10 8 12 4 12 -15 0z"/>
<path d="M2281 7593 c-10 -11 -16 -12 -21 -3 -10 16 -20 -12 -13 -38 5 -21 46
-38 63 -27 13 8 13 32 1 39 -5 4 -7 -3 -4 -14 7 -25 -18 -27 -41 -4 -22 22
-20 27 6 13 18 -9 20 -9 15 4 -5 12 1 15 25 11 30 -3 52 -14 30 -14 -7 0 -12
-5 -12 -11 0 -8 4 -9 13 0 8 6 17 7 21 3 4 -4 7 -2 6 3 -4 20 0 35 11 35 5 0
7 -5 3 -12 -4 -7 -3 -8 4 -4 19 11 14 26 -8 26 -11 0 -20 -6 -20 -14 0 -10 -7
-12 -22 -8 -21 5 -21 6 -2 14 18 7 18 8 -1 6 -11 -2 -24 0 -30 4 -5 3 -16 -1
-24 -9z"/>
<path d="M2175 7510 c3 -5 8 -10 11 -10 2 0 4 5 4 10 0 6 -5 10 -11 10 -5 0
-7 -4 -4 -10z"/>
<path d="M2650 7506 c0 -2 8 -10 18 -17 15 -13 16 -12 3 4 -13 16 -21 21 -21
13z"/>
<path d="M2740 7479 c0 -5 5 -7 10 -4 6 3 10 8 10 11 0 2 -4 4 -10 4 -5 0 -10
-5 -10 -11z"/>
<path d="M3069 7393 c-13 -16 -12 -17 3 -5 9 8 23 10 29 6 8 -4 9 -3 5 4 -10
17 -21 15 -37 -5z"/>
<path d="M3495 7240 c3 -5 8 -10 11 -10 2 0 4 5 4 10 0 6 -5 10 -11 10 -5 0
-7 -4 -4 -10z"/>
<path d="M3495 7190 c-3 -5 -1 -10 4 -10 6 0 11 5 11 10 0 6 -2 10 -4 10 -3 0
-8 -4 -11 -10z"/>
<path d="M3605 6951 c-3 -5 0 -13 6 -17 7 -4 9 -3 5 4 -3 5 0 13 6 15 9 4 10
6 1 6 -6 1 -14 -3 -18 -8z"/>
<path d="M3887 6524 c-4 -4 -7 -12 -7 -18 0 -6 5 -4 10 4 9 13 11 13 21 0 9
-12 10 -12 7 -1 -5 17 -21 25 -31 15z"/>
<path d="M3844 6432 c3 -5 0 -13 -6 -15 -9 -4 -10 -6 -1 -6 17 -1 25 16 12 25
-7 4 -9 3 -5 -4z"/>
<path d="M3888 6418 c5 -5 16 -8 23 -6 8 3 3 7 -10 11 -17 4 -21 3 -13 -5z"/>
<path d="M3945 6400 c-3 -6 1 -7 9 -4 18 7 21 14 7 14 -6 0 -13 -4 -16 -10z"/>
<path d="M3534 6357 c-8 -9 -7 -16 1 -24 10 -9 13 -6 13 13 0 13 -1 24 -2 24
0 -1 -6 -6 -12 -13z"/>
<path d="M3955 6360 c-3 -5 -1 -10 4 -10 6 0 11 5 11 10 0 6 -2 10 -4 10 -3 0
-8 -4 -11 -10z"/>
<path d="M3635 6350 c-3 -5 -1 -10 4 -10 6 0 11 5 11 10 0 6 -2 10 -4 10 -3 0
-8 -4 -11 -10z"/>
<path d="M6845 6346 c18 -13 18 -14 -8 -9 -27 5 -37 -9 -15 -23 6 -4 8 -3 4 4
-4 7 3 10 21 9 19 -1 28 3 31 16 3 13 -3 17 -24 17 -26 0 -27 -1 -9 -14z"/>
<path d="M6725 6310 c-3 -6 1 -7 9 -4 18 7 21 14 7 14 -6 0 -13 -4 -16 -10z"/>
<path d="M3942 6270 c0 -14 2 -19 5 -12 2 6 2 18 0 25 -3 6 -5 1 -5 -13z"/>
<path d="M4116 6263 c-6 -14 -5 -15 5 -6 7 7 10 15 7 18 -3 3 -9 -2 -12 -12z"/>
<path d="M4017 6259 c7 -7 15 -10 18 -7 3 3 -2 9 -12 12 -14 6 -15 5 -6 -5z"/>
<path d="M6495 6243 c-31 -7 -40 -21 -11 -16 15 3 29 9 32 14 3 5 4 8 2 8 -2
-1 -12 -3 -23 -6z"/>
<path d="M4155 6219 c-4 -6 -5 -12 -2 -15 2 -3 7 2 10 11 7 17 1 20 -8 4z"/>
<path d="M3714 6212 c3 -5 0 -13 -6 -15 -8 -3 -6 -6 5 -6 19 -1 23 14 5 25 -6
4 -8 3 -4 -4z"/>
<path d="M6211 6203 c-16 -17 -11 -25 8 -14 7 5 12 13 10 19 -2 6 -10 4 -18
-5z"/>
<path d="M6428 6213 c-3 -4 1 -19 8 -33 13 -25 14 -25 14 -2 0 12 0 25 1 29 1
11 -18 16 -23 6z"/>
<path d="M6590 6210 c-9 -6 -10 -10 -3 -10 6 0 15 5 18 10 8 12 4 12 -15 0z"/>
<path d="M4026 6195 c4 -8 11 -15 16 -15 6 0 5 6 -2 15 -7 8 -14 15 -16 15 -2
0 -1 -7 2 -15z"/>
<path d="M6495 6200 c-8 -13 3 -30 18 -30 8 0 7 3 -2 9 -7 5 -10 14 -7 20 4 6
5 11 2 11 -3 0 -8 -4 -11 -10z"/>
<path d="M6520 6201 c0 -6 4 -12 8 -15 5 -3 9 1 9 9 0 8 -4 15 -9 15 -4 0 -8
-4 -8 -9z"/>
<path d="M4100 6190 c-9 -6 -10 -10 -3 -10 6 0 15 5 18 10 8 12 4 12 -15 0z"/>
<path d="M4200 6190 c0 -5 5 -10 11 -10 5 0 7 5 4 10 -3 6 -8 10 -11 10 -2 0
-4 -4 -4 -10z"/>
<path d="M6266 6176 c7 -19 20 -21 30 -3 4 6 4 9 -1 5 -4 -4 -14 -3 -22 4 -11
8 -12 7 -7 -6z"/>
<path d="M4256 6163 c-6 -14 -5 -15 5 -6 7 7 10 15 7 18 -3 3 -9 -2 -12 -12z"/>
<path d="M4297 6173 c-4 -3 -7 -11 -7 -17 0 -6 5 -5 12 2 6 6 9 14 7 17 -3 3
-9 2 -12 -2z"/>
<path d="M6170 6169 c0 -5 5 -7 10 -4 6 3 10 8 10 11 0 2 -4 4 -10 4 -5 0 -10
-5 -10 -11z"/>
<path d="M6195 6161 c-3 -5 -1 -12 5 -16 6 -4 8 -11 4 -16 -4 -6 -15 -3 -27 8
-12 9 -16 11 -10 3 10 -11 10 -17 -2 -30 -14 -15 -14 -19 2 -31 16 -12 17 -12
5 2 -10 13 -10 18 0 27 7 6 16 11 21 11 4 1 9 2 12 2 3 1 9 2 14 3 5 0 12 4
15 9 3 4 3 5 -1 2 -9 -7 -34 16 -27 26 3 5 3 9 0 9 -3 0 -7 -4 -11 -9z"/>
<path d="M4325 6151 c-3 -5 -2 -12 3 -15 5 -3 9 1 9 9 0 17 -3 19 -12 6z"/>
<path d="M5976 6137 c3 -10 9 -15 12 -12 3 3 0 11 -7 18 -10 9 -11 8 -5 -6z"/>
<path d="M4230 6130 c-9 -6 -10 -10 -3 -10 6 0 15 5 18 10 8 12 4 12 -15 0z"/>
<path d="M4370 6130 c-9 -6 -10 -10 -3 -10 6 0 15 5 18 10 8 12 4 12 -15 0z"/>
<path d="M6285 6131 c-3 -6 3 -9 14 -8 11 0 17 5 15 9 -7 11 -22 10 -29 -1z"/>
<path d="M4200 6100 c6 -11 13 -20 16 -20 2 0 0 9 -6 20 -6 11 -13 20 -16 20
-2 0 0 -9 6 -20z"/>
<path d="M6000 6112 c0 -4 10 -9 22 -9 18 -2 20 0 8 7 -18 12 -30 13 -30 2z"/>
<path d="M6110 6104 c0 -8 5 -12 10 -9 6 4 8 11 5 16 -9 14 -15 11 -15 -7z"/>
<path d="M4174 6102 c4 -7 3 -19 -4 -27 -8 -10 -8 -15 2 -21 7 -4 10 -4 6 1
-4 4 -3 14 4 22 8 11 8 17 -2 26 -10 9 -11 9 -6 -1z"/>
<path d="M4339 6083 c-17 -20 -18 -23 -3 -10 11 9 23 15 26 12 3 -3 8 1 11 10
10 24 -7 18 -34 -12z"/>
<path d="M5833 6093 c1 -23 37 -34 37 -12 0 5 -4 8 -9 4 -6 -3 -14 3 -20 12
-9 16 -10 15 -8 -4z"/>
<path d="M6214 6102 c3 -5 0 -13 -6 -15 -9 -4 -10 -6 -1 -6 17 -1 25 16 12 25
-7 4 -9 3 -5 -4z"/>
<path d="M6275 6100 c-3 -5 -1 -10 4 -10 6 0 11 5 11 10 0 6 -2 10 -4 10 -3 0
-8 -4 -11 -10z"/>
<path d="M4234 6086 c1 -9 7 -21 13 -27 9 -9 11 -7 9 5 -1 9 -7 21 -13 27 -9
9 -11 7 -9 -5z"/>
<path d="M5670 6091 c0 -6 4 -13 10 -16 6 -3 7 1 4 9 -7 18 -14 21 -14 7z"/>
<path d="M5703 6085 c0 -13 21 -15 33 -3 3 4 13 4 22 1 9 -4 13 -2 9 4 -9 15
-64 14 -64 -2z"/>
<path d="M5883 6083 c0 -8 6 -9 19 -2 10 5 18 11 18 12 0 2 -8 3 -18 3 -10 0
-19 -6 -19 -13z"/>
<path d="M4280 6086 c0 -9 30 -14 35 -6 4 6 -3 10 -14 10 -12 0 -21 -2 -21 -4z"/>
<path d="M5780 6082 c0 -5 7 -9 15 -9 8 0 12 4 9 9 -3 4 -9 8 -15 8 -5 0 -9
-4 -9 -8z"/>
<path d="M3915 6070 c4 -6 -6 -10 -22 -10 -21 0 -24 -3 -14 -9 9 -6 22 -6 32
-1 9 5 20 6 25 2 5 -4 2 1 -5 11 -14 18 -26 24 -16 7z"/>
<path d="M4114 6066 c1 -8 5 -18 8 -22 4 -3 5 1 4 10 -1 8 -5 18 -8 22 -4 3
-5 -1 -4 -10z"/>
<path d="M5555 6071 c-11 -5 -24 -6 -30 -3 -5 3 -7 1 -2 -3 10 -12 47 -14 47
-3 0 5 5 6 12 2 7 -4 8 -3 4 4 -4 7 -8 12 -9 11 -1 0 -11 -4 -22 -8z"/>
<path d="M6088 6073 c7 -3 16 -2 19 1 4 3 -2 6 -13 5 -11 0 -14 -3 -6 -6z"/>
<path d="M4500 6059 c0 -5 5 -7 10 -4 6 3 10 8 10 11 0 2 -4 4 -10 4 -5 0 -10
-5 -10 -11z"/>
<path d="M6047 6050 c10 -11 19 -20 21 -20 1 0 -2 9 -8 20 -6 11 -15 20 -20
20 -6 0 -2 -9 7 -20z"/>
<path d="M5470 6056 c0 -2 7 -6 15 -10 8 -3 15 -1 15 4 0 6 -7 10 -15 10 -8 0
-15 -2 -15 -4z"/>
<path d="M5906 6043 c-6 -14 -5 -15 5 -6 7 7 10 15 7 18 -3 3 -9 -2 -12 -12z"/>
<path d="M5992 6051 c-11 -7 -10 -9 3 -15 10 -3 13 -11 9 -18 -4 -7 -3 -10 1
-5 5 4 19 0 31 -8 15 -9 25 -11 29 -5 4 6 1 9 -6 8 -7 -2 -14 3 -15 10 -1 6
-2 16 -3 21 0 5 -11 7 -23 3 -14 -3 -19 -2 -14 6 8 14 6 15 -12 3z"/>
<path d="M4906 6038 c3 -5 10 -6 15 -3 13 9 11 12 -6 12 -8 0 -12 -4 -9 -9z"/>
<path d="M5703 6037 c4 -14 26 -16 30 -3 1 5 -6 10 -16 12 -10 1 -16 -3 -14
-9z"/>
<path d="M3770 6036 c0 -2 11 -6 25 -8 13 -3 22 -1 19 3 -5 9 -44 13 -44 5z"/>
<path d="M3970 6029 c0 -5 5 -7 10 -4 6 3 10 8 10 11 0 2 -4 4 -10 4 -5 0 -10
-5 -10 -11z"/>
<path d="M4157 6029 c7 -7 15 -10 18 -7 3 3 -2 9 -12 12 -14 6 -15 5 -6 -5z"/>
<path d="M4337 6027 c4 -6 0 -8 -10 -4 -11 4 -14 2 -10 -9 5 -13 8 -13 24 2
23 21 23 21 4 21 -8 0 -11 -5 -8 -10z"/>
<path d="M5366 6023 c-6 -14 -5 -15 5 -6 7 7 10 15 7 18 -3 3 -9 -2 -12 -12z"/>
<path d="M5431 6024 c0 -11 3 -14 6 -6 3 7 2 16 -1 19 -3 4 -6 -2 -5 -13z"/>
<path d="M3900 6010 c0 -5 7 -7 15 -4 8 4 15 8 15 10 0 2 -7 4 -15 4 -8 0 -15
-4 -15 -10z"/>
<path d="M4540 6009 c0 -5 5 -7 10 -4 6 3 10 8 10 11 0 2 -4 4 -10 4 -5 0 -10
-5 -10 -11z"/>
<path d="M5090 6005 c-9 -11 -10 -19 -3 -26 8 -8 13 -7 18 2 5 8 4 10 -3 5 -7
-4 -12 -2 -12 3 0 10 14 15 33 12 5 -1 6 3 2 9 -9 14 -20 12 -35 -5z"/>
<path d="M5140 6004 c0 -8 5 -12 10 -9 6 4 8 11 5 16 -9 14 -15 11 -15 -7z"/>
<path d="M5305 6010 c3 -5 8 -10 11 -10 2 0 4 5 4 10 0 6 -5 10 -11 10 -5 0
-7 -4 -4 -10z"/>
<path d="M5379 6000 c-13 -10 -20 -19 -16 -20 4 0 17 9 29 20 28 26 17 26 -13
0z"/>
<path d="M5470 6010 c0 -5 5 -10 11 -10 5 0 7 5 4 10 -3 6 -8 10 -11 10 -2 0
-4 -4 -4 -10z"/>
<path d="M5500 6011 c0 -6 4 -13 10 -16 6 -3 7 1 4 9 -7 18 -14 21 -14 7z"/>
<path d="M5580 6010 c0 -5 -7 -7 -15 -4 -8 4 -15 4 -15 1 0 -13 30 -14 40 -1
9 10 9 14 1 14 -6 0 -11 -4 -11 -10z"/>
<path d="M5732 6008 c-7 -7 -12 -19 -11 -27 0 -11 2 -12 6 -3 2 6 9 10 13 7 5
-3 12 0 16 6 5 8 3 9 -6 4 -10 -6 -12 -4 -7 8 8 20 5 21 -11 5z"/>
<path d="M5970 6010 c0 -5 5 -10 10 -10 6 0 10 5 10 10 0 6 -4 10 -10 10 -5 0
-10 -4 -10 -10z"/>
<path d="M4276 5998 c3 -5 10 -6 15 -3 13 9 11 12 -6 12 -8 0 -12 -4 -9 -9z"/>
<path d="M5183 5995 c0 -8 4 -12 9 -9 5 3 6 10 3 15 -9 13 -12 11 -12 -6z"/>
<path d="M5795 6000 c4 -6 11 -8 16 -5 14 9 11 15 -7 15 -8 0 -12 -5 -9 -10z"/>
<path d="M4085 5991 c-3 -5 -2 -12 3 -15 5 -3 9 1 9 9 0 17 -3 19 -12 6z"/>
<path d="M4225 5980 c-3 -5 -2 -10 4 -10 5 0 13 5 16 10 3 6 2 10 -4 10 -5 0
-13 -4 -16 -10z"/>
<path d="M4485 5980 c4 -6 11 -8 16 -5 14 9 11 15 -7 15 -8 0 -12 -5 -9 -10z"/>
<path d="M3930 5970 c14 -4 18 -9 10 -9 -13 -1 -13 -2 0 -11 21 -14 26 -12 27
8 1 13 -6 18 -30 19 -30 1 -30 1 -7 -7z"/>
<path d="M4169 5978 c-7 -22 -3 -48 8 -48 7 0 13 2 13 4 0 2 3 12 6 20 5 12 2
15 -12 9 -12 -4 -15 -3 -10 5 4 7 5 12 2 12 -3 0 -6 -1 -7 -2z"/>
<path d="M4995 5970 c-3 -5 -1 -10 4 -10 6 0 11 5 11 10 0 6 -2 10 -4 10 -3 0
-8 -4 -11 -10z"/>
<path d="M5535 5966 c-5 -6 -11 -18 -13 -26 -3 -12 0 -11 15 1 10 9 25 14 33
11 16 -5 15 -4 -10 15 -11 8 -18 8 -25 -1z"/>
<path d="M3980 5959 c0 -5 5 -7 10 -4 6 3 10 8 10 11 0 2 -4 4 -10 4 -5 0 -10
-5 -10 -11z"/>
<path d="M4036 5955 c-3 -8 -1 -15 4 -15 6 0 10 7 10 15 0 8 -2 15 -4 15 -2 0
-6 -7 -10 -15z"/>
<path d="M5320 5960 c0 -5 5 -10 11 -10 5 0 7 5 4 10 -3 6 -8 10 -11 10 -2 0
-4 -4 -4 -10z"/>
<path d="M5645 5950 c10 -11 20 -20 23 -20 3 0 -3 9 -13 20 -10 11 -20 20 -23
20 -3 0 3 -9 13 -20z"/>
<path d="M5875 5960 c-3 -6 1 -7 9 -4 18 7 21 14 7 14 -6 0 -13 -4 -16 -10z"/>
<path d="M4280 5954 c0 -13 18 -39 24 -34 2 3 -2 14 -10 24 -8 11 -14 16 -14
10z"/>
<path d="M5162 5940 c7 -11 17 -20 22 -20 5 0 1 9 -9 20 -10 11 -20 20 -22 20
-2 0 2 -9 9 -20z"/>
<path d="M5475 5950 c3 -5 8 -10 11 -10 2 0 4 5 4 10 0 6 -5 10 -11 10 -5 0
-7 -4 -4 -10z"/>
<path d="M5695 5950 c4 -6 11 -8 16 -5 14 9 11 15 -7 15 -8 0 -12 -5 -9 -10z"/>
<path d="M5072 5939 c16 -11 48 -12 48 -1 0 4 -14 7 -31 8 -20 1 -26 -2 -17
-7z"/>
<path d="M5406 5923 c-6 -14 -5 -15 5 -6 7 7 10 15 7 18 -3 3 -9 -2 -12 -12z"/>
<path d="M4086 5921 c-14 -5 -16 -10 -8 -15 7 -4 10 -12 7 -17 -3 -5 1 -6 9
-3 8 3 14 14 13 25 -1 10 -1 19 -2 18 0 0 -9 -4 -19 -8z"/>
<path d="M4478 5923 c7 -3 16 -2 19 1 4 3 -2 6 -13 5 -11 0 -14 -3 -6 -6z"/>
<path d="M4590 5920 c-9 -6 -10 -10 -3 -10 6 0 15 5 18 10 8 12 4 12 -15 0z"/>
<path d="M4925 5920 c3 -5 8 -10 11 -10 2 0 4 5 4 10 0 6 -5 10 -11 10 -5 0
-7 -4 -4 -10z"/>
<path d="M5145 5920 c-4 -6 -11 -7 -17 -4 -7 4 -8 2 -4 -5 6 -9 11 -9 22 0 14
11 18 19 10 19 -3 0 -8 -5 -11 -10z"/>
<path d="M4157 5914 c-3 -5 2 -15 12 -21 14 -9 18 -8 18 3 0 7 -4 11 -8 8 -4
-2 -9 1 -11 8 -3 7 -7 8 -11 2z"/>
<path d="M5347 5907 c-4 -11 -12 -15 -18 -11 -7 4 -9 3 -5 -4 3 -6 -2 -13 -11
-15 -10 -2 -3 -2 16 0 21 3 37 0 42 -9 7 -10 9 -9 9 5 0 9 -4 17 -9 17 -5 0
-11 8 -13 18 -3 16 -4 16 -11 -1z"/>
<path d="M5650 5900 c0 -13 -7 -20 -20 -20 -11 0 -20 -4 -20 -9 0 -11 38 -2
45 10 3 4 13 6 23 3 16 -5 16 -5 0 9 -10 8 -15 17 -11 20 3 4 1 7 -5 7 -7 0
-12 -9 -12 -20z"/>
<path d="M5170 5895 c-7 -8 -17 -12 -23 -8 -6 4 -7 1 -3 -6 6 -9 13 -8 27 5
10 9 19 19 19 21 0 7 -8 2 -20 -12z"/>
<path d="M5537 5891 c-4 -17 -3 -21 5 -13 5 5 8 16 6 23 -3 8 -7 3 -11 -10z"/>
<path d="M5569 5893 c-13 -16 -12 -17 4 -4 9 7 17 15 17 17 0 8 -8 3 -21 -13z"/>
<path d="M4120 5889 c0 -5 5 -7 10 -4 6 3 10 8 10 11 0 2 -4 4 -10 4 -5 0 -10
-5 -10 -11z"/>
<path d="M4231 5884 c0 -11 3 -14 6 -6 3 7 2 16 -1 19 -3 4 -6 -2 -5 -13z"/>
<path d="M4966 5892 c-3 -5 1 -9 9 -9 8 0 12 4 9 9 -3 4 -7 8 -9 8 -2 0 -6 -4
-9 -8z"/>
<path d="M5406 5888 c3 -5 10 -6 15 -3 13 9 11 12 -6 12 -8 0 -12 -4 -9 -9z"/>
<path d="M5476 5893 c-4 -5 -13 -8 -18 -8 -6 0 -12 -6 -14 -13 -1 -7 0 -8 3
-2 2 5 9 8 14 4 5 -3 16 2 25 10 8 9 11 16 6 16 -5 0 -12 -3 -16 -7z"/>
<path d="M4334 5878 c-4 -7 -4 -10 1 -6 4 4 15 2 24 -5 14 -11 14 -10 2 6 -16
20 -18 21 -27 5z"/>
<path d="M4440 5880 c0 -6 -4 -9 -9 -5 -5 3 -13 0 -17 -6 -4 -7 -3 -9 4 -5 5
3 12 2 14 -3 1 -5 9 -3 15 4 8 9 9 16 3 20 -6 3 -10 1 -10 -5z"/>
<path d="M4743 5875 c0 -8 7 -15 15 -15 12 0 12 3 2 15 -7 8 -13 15 -15 15 -1
0 -2 -7 -2 -15z"/>
<path d="M4907 5873 c6 -16 8 -16 23 1 9 12 8 15 -8 13 -12 0 -18 -6 -15 -14z"/>
<path d="M5260 5880 c-9 -6 -10 -10 -3 -10 6 0 15 5 18 10 8 12 4 12 -15 0z"/>
<path d="M4134 5862 c5 -8 -1 -12 -16 -13 -18 -1 -19 -2 -4 -6 23 -6 43 12 25
22 -8 5 -10 4 -5 -3z"/>
<path d="M4499 5857 c7 -7 15 -12 19 -12 4 -1 18 -7 32 -14 25 -13 25 -13 5 6
-23 22 -77 41 -56 20z"/>
<path d="M4970 5860 c0 -9 39 -25 46 -18 2 3 -7 10 -21 16 -14 6 -25 7 -25 2z"/>
<path d="M4290 5850 c-13 -9 -13 -10 0 -10 8 0 22 5 30 10 13 9 13 10 0 10 -8
0 -22 -5 -30 -10z"/>
<path d="M4605 5850 c6 -10 4 -12 -11 -6 -15 6 -17 5 -6 -5 9 -9 15 -10 23 -2
8 8 7 13 -2 18 -8 6 -10 4 -4 -5z"/>
<path d="M5121 5844 c-11 -13 -15 -14 -22 -2 -7 10 -9 9 -9 -6 0 -11 5 -16 14
-13 7 3 19 0 25 -6 8 -8 14 -8 24 2 10 11 9 14 -1 18 -6 3 -10 9 -6 14 9 15
-10 9 -25 -7z"/>
<path d="M5280 5854 c0 -2 10 -8 21 -15 17 -8 20 -8 17 2 -4 11 -38 23 -38 13z"/>
<path d="M5396 5851 c-4 -5 -2 -12 3 -15 5 -4 12 -2 15 3 4 5 2 12 -3 15 -5 4
-12 2 -15 -3z"/>
<path d="M5465 5851 c-3 -5 -2 -12 3 -15 5 -3 9 1 9 9 0 17 -3 19 -12 6z"/>
<path d="M4368 5843 c7 -3 16 -2 19 1 4 3 -2 6 -13 5 -11 0 -14 -3 -6 -6z"/>
<path d="M4422 5832 c-7 -5 -10 -15 -7 -24 4 -9 -3 -19 -17 -27 -22 -11 -6 -8
29 6 11 4 14 3 9 -5 -5 -8 1 -12 16 -12 13 0 18 4 12 8 -12 8 -28 43 -26 55 2
9 0 9 -16 -1z"/>
<path d="M4482 5818 c-2 -10 -9 -15 -16 -12 -6 4 -1 -4 11 -16 19 -20 23 -21
37 -8 11 11 12 18 3 27 -8 8 -8 11 1 11 7 0 12 4 12 8 0 16 -43 7 -48 -10z
m18 -18 c0 -5 -5 -10 -11 -10 -5 0 -7 5 -4 10 3 6 8 10 11 10 2 0 4 -4 4 -10z"/>
<path d="M4935 5830 c-4 -6 -3 -16 3 -22 6 -6 12 -6 17 2 4 6 3 16 -3 22 -6 6
-12 6 -17 -2z"/>
<path d="M5165 5814 c-9 -14 -14 -28 -11 -32 3 -3 6 0 6 6 0 6 6 10 13 8 6 -1
9 -1 5 1 -5 3 -3 13 2 24 15 28 5 23 -15 -7z"/>
<path d="M4900 5811 c0 -6 4 -13 10 -16 6 -3 7 1 4 9 -7 18 -14 21 -14 7z"/>
<path d="M5106 5812 c-2 -4 4 -14 15 -20 19 -12 19 -11 9 8 -12 22 -16 24 -24
12z"/>
<path d="M4355 5799 c-4 -6 -5 -12 -2 -15 2 -3 7 2 10 11 7 17 1 20 -8 4z"/>
<path d="M4579 5801 c0 -3 -2 -16 -5 -28 -2 -13 1 -23 7 -23 5 0 7 5 4 10 -3
6 0 10 7 10 9 0 9 3 -2 10 -13 8 -12 10 3 10 9 0 17 4 17 8 0 10 -30 12 -31 3z"/>
<path d="M4750 5800 c0 -5 5 -10 11 -10 5 0 7 5 4 10 -3 6 -8 10 -11 10 -2 0
-4 -4 -4 -10z"/>
<path d="M4859 5802 c11 -8 11 -10 0 -14 -10 -3 -9 -6 3 -10 11 -5 15 -2 14
10 -2 9 -9 18 -17 20 -12 3 -12 2 0 -6z"/>
<path d="M4720 5790 c0 -5 5 -10 11 -10 5 0 7 5 4 10 -3 6 -8 10 -11 10 -2 0
-4 -4 -4 -10z"/>
<path d="M5040 5779 c0 -5 5 -7 10 -4 6 3 10 8 10 11 0 2 -4 4 -10 4 -5 0 -10
-5 -10 -11z"/>
<path d="M4540 5769 c0 -5 5 -7 10 -4 6 3 10 8 10 11 0 2 -4 4 -10 4 -5 0 -10
-5 -10 -11z"/>
<path d="M4830 5760 l-25 -8 28 -1 c15 -1 27 4 27 9 0 6 -1 10 -2 9 -2 -1 -14
-5 -28 -9z"/>
<path d="M3811 7250 c0 -8 6 -35 13 -60 8 -25 15 -38 15 -30 0 8 -6 35 -13 60
-8 25 -15 38 -15 30z"/>
<path d="M4253 7243 c9 -2 25 -2 35 0 9 3 1 5 -18 5 -19 0 -27 -2 -17 -5z"/>
<path d="M4588 7233 c12 -2 30 -2 40 0 9 3 -1 5 -23 4 -22 0 -30 -2 -17 -4z"/>
<path d="M5288 7203 c6 -2 18 -2 25 0 6 3 1 5 -13 5 -14 0 -19 -2 -12 -5z"/>
<path d="M5863 7173 c9 -2 25 -2 35 0 9 3 1 5 -18 5 -19 0 -27 -2 -17 -5z"/>
<path d="M5938 7173 c7 -3 16 -2 19 1 4 3 -2 6 -13 5 -11 0 -14 -3 -6 -6z"/>
<path d="M6048 7163 c6 -2 18 -2 25 0 6 3 1 5 -13 5 -14 0 -19 -2 -12 -5z"/>
<path d="M6103 7163 c9 -2 25 -2 35 0 9 3 1 5 -18 5 -19 0 -27 -2 -17 -5z"/>
<path d="M6268 7153 c7 -3 16 -2 19 1 4 3 -2 6 -13 5 -11 0 -14 -3 -6 -6z"/>
<path d="M6353 7153 c9 -2 25 -2 35 0 9 3 1 5 -18 5 -19 0 -27 -2 -17 -5z"/>
<path d="M6728 7133 c6 -2 18 -2 25 0 6 3 1 5 -13 5 -14 0 -19 -2 -12 -5z"/>
<path d="M6855 7125 c23 -8 83 -10 79 -3 -3 4 -24 8 -47 7 -23 0 -37 -2 -32
-4z"/>
<path d="M6958 7113 c6 -2 18 -2 25 0 6 3 1 5 -13 5 -14 0 -19 -2 -12 -5z"/>
<path d="M3851 7105 c1 -19 18 -51 18 -35 0 8 -4 22 -9 30 -5 8 -9 11 -9 5z"/>
<path d="M7055 7070 c21 -24 26 -25 19 -6 -3 8 -13 17 -22 21 -13 5 -13 2 3
-15z"/>
<path d="M3880 7023 c0 -15 42 -124 47 -120 2 2 -8 33 -21 68 -14 35 -25 59
-26 52z"/>
<path d="M7066 6914 c-4 -14 -5 -28 -3 -31 3 -2 8 8 11 23 4 14 5 28 3 31 -3
2 -8 -8 -11 -23z"/>
<path d="M4560 6900 c0 -5 7 -7 15 -4 8 4 15 8 15 10 0 2 -7 4 -15 4 -8 0 -15
-4 -15 -10z"/>
<path d="M5236 6891 c-4 -5 3 -7 14 -4 23 6 26 13 6 13 -8 0 -17 -4 -20 -9z"/>
<path d="M5826 6813 c-6 -14 -5 -15 5 -6 7 7 10 15 7 18 -3 3 -9 -2 -12 -12z"/>
<path d="M3970 6796 c0 -11 40 -86 45 -86 3 0 -4 19 -16 43 -23 45 -29 54 -29
43z"/>
<path d="M5996 6730 c-25 -38 -44 -70 -42 -70 5 0 70 89 85 118 23 43 3 21
-43 -48z"/>
<path d="M5370 6750 c-6 -11 -8 -20 -6 -20 3 0 10 9 16 20 6 11 8 20 6 20 -3
0 -10 -9 -16 -20z"/>
<path d="M4680 6710 c-6 -11 -8 -20 -6 -20 3 0 10 9 16 20 6 11 8 20 6 20 -3
0 -10 -9 -16 -20z"/>
<path d="M4457 6680 c-8 -22 -13 -40 -11 -40 7 0 36 71 31 76 -2 2 -11 -14
-20 -36z"/>
<path d="M4651 6657 c-13 -21 -12 -21 5 -5 10 10 16 20 13 22 -3 3 -11 -5 -18
-17z"/>
<path d="M5740 6619 c-12 -23 -20 -43 -18 -45 3 -2 14 17 26 41 27 56 20 60
-8 4z"/>
<path d="M5929 6633 c-13 -16 -12 -17 4 -4 9 7 17 15 17 17 0 8 -8 3 -21 -13z"/>
<path d="M4100 6585 c13 -14 26 -25 28 -25 3 0 -5 11 -18 25 -13 14 -26 25
-28 25 -3 0 5 -11 18 -25z"/>
<path d="M5085 6589 c-4 -6 -5 -12 -2 -15 2 -3 7 2 10 11 7 17 1 20 -8 4z"/>
<path d="M6956 6545 c-3 -8 -1 -15 4 -15 6 0 10 7 10 15 0 8 -2 15 -4 15 -2 0
-6 -7 -10 -15z"/>
<path d="M4584 6538 c-4 -7 -15 -24 -23 -38 -10 -15 -11 -21 -3 -16 13 7 46
66 38 66 -3 0 -8 -6 -12 -12z"/>
<path d="M5056 6523 c-6 -14 -5 -15 5 -6 7 7 10 15 7 18 -3 3 -9 -2 -12 -12z"/>
<path d="M5696 6525 c-9 -26 -7 -32 5 -12 6 10 9 21 6 23 -2 3 -7 -2 -11 -11z"/>
<path d="M5855 6529 c-4 -6 -5 -12 -2 -15 2 -3 7 2 10 11 7 17 1 20 -8 4z"/>
<path d="M4160 6523 c0 -5 9 -18 20 -28 11 -10 20 -15 20 -11 0 4 -9 16 -20
28 -11 12 -20 17 -20 11z"/>
<path d="M6870 6520 c-9 -6 -10 -10 -3 -10 6 0 15 5 18 10 8 12 4 12 -15 0z"/>
<path d="M6798 6503 c7 -3 16 -2 19 1 4 3 -2 6 -13 5 -11 0 -14 -3 -6 -6z"/>
<path d="M5795 6479 c-16 -10 -25 -19 -19 -19 7 0 22 9 35 20 30 24 23 24 -16
-1z"/>
<path d="M6743 6493 c9 -2 23 -2 30 0 6 3 -1 5 -18 5 -16 0 -22 -2 -12 -5z"/>
<path d="M4229 6456 c13 -16 51 -41 51 -33 0 2 -15 14 -32 27 -21 15 -28 17
-19 6z"/>
<path d="M6525 6460 c-13 -6 -15 -9 -5 -9 8 0 22 4 30 9 18 12 2 12 -25 0z"/>
<path d="M5738 6453 c7 -3 16 -2 19 1 4 3 -2 6 -13 5 -11 0 -14 -3 -6 -6z"/>
<path d="M5016 6435 c-9 -26 -7 -32 5 -12 6 10 9 21 6 23 -2 3 -7 -2 -11 -11z"/>
<path d="M6408 6433 c6 -2 18 -2 25 0 6 3 1 5 -13 5 -14 0 -19 -2 -12 -5z"/>
<path d="M6358 6423 c7 -3 16 -2 19 1 4 3 -2 6 -13 5 -11 0 -14 -3 -6 -6z"/>
<path d="M6278 6403 c7 -3 16 -2 19 1 4 3 -2 6 -13 5 -11 0 -14 -3 -6 -6z"/>
<path d="M6218 6393 c7 -3 16 -2 19 1 4 3 -2 6 -13 5 -11 0 -14 -3 -6 -6z"/>
<path d="M5125 6380 c-3 -6 1 -7 9 -4 18 7 21 14 7 14 -6 0 -13 -4 -16 -10z"/>
<path d="M4350 6376 c0 -2 7 -7 16 -10 8 -3 12 -2 9 4 -6 10 -25 14 -25 6z"/>
<path d="M6015 6355 c-51 -17 -16 -17 50 0 39 10 43 13 20 13 -16 0 -48 -6
-70 -13z"/>
<path d="M4397 6349 c7 -7 15 -10 18 -7 3 3 -2 9 -12 12 -14 6 -15 5 -6 -5z"/>
<path d="M5948 6333 c7 -3 16 -2 19 1 4 3 -2 6 -13 5 -11 0 -14 -3 -6 -6z"/>
<path d="M3245 6283 c4 -10 27 -67 50 -128 95 -243 318 -792 348 -854 40 -83
113 -155 195 -194 50 -23 82 -31 152 -35 l88 -5 52 51 c125 123 316 156 467
82 55 -27 133 -98 133 -122 0 -4 174 -8 386 -8 l386 0 38 43 c97 110 272 154
425 106 55 -17 78 -31 128 -79 65 -64 95 -76 161 -66 85 13 146 75 146 150 0
30 -7 45 -33 71 -62 62 -17 59 -1143 63 l-1030 3 4 29 4 30 1137 2 c1131 3
1136 3 1182 24 59 27 114 77 143 128 13 22 54 145 90 271 37 127 73 247 81
268 8 20 15 41 15 46 0 4 -96 -34 -212 -86 -429 -191 -654 -269 -1023 -357
-345 -81 -598 -111 -930 -111 -227 1 -277 4 -390 24 -398 71 -674 237 -972
584 -76 88 -91 101 -78 70z"/>
<path d="M5720 6290 c-21 -7 -21 -8 -5 -9 11 0 27 4 35 9 18 11 5 11 -30 0z"/>
<path d="M5575 6265 l-50 -14 50 6 c27 3 61 9 75 14 l25 7 -25 0 c-14 0 -47
-6 -75 -13z"/>
<path d="M4635 6260 c11 -5 29 -8 40 -8 16 0 15 2 -5 8 -34 11 -60 11 -35 0z"/>
<path d="M5478 6243 c7 -3 16 -2 19 1 4 3 -2 6 -13 5 -11 0 -14 -3 -6 -6z"/>
<path d="M4768 6233 c7 -3 16 -2 19 1 4 3 -2 6 -13 5 -11 0 -14 -3 -6 -6z"/>
<path d="M5408 6233 c7 -3 16 -2 19 1 4 3 -2 6 -13 5 -11 0 -14 -3 -6 -6z"/>
<path d="M5268 6223 c7 -3 16 -2 19 1 4 3 -2 6 -13 5 -11 0 -14 -3 -6 -6z"/>
<path d="M4973 6213 c9 -2 25 -2 35 0 9 3 1 5 -18 5 -19 0 -27 -2 -17 -5z"/>
<path d="M5068 6213 c23 -2 61 -2 85 0 23 2 4 4 -43 4 -47 0 -66 -2 -42 -4z"/>
<path d="M4319 5145 c-108 -34 -209 -172 -209 -283 0 -134 122 -234 266 -219
157 16 274 142 274 294 0 130 -82 212 -220 219 -39 2 -83 -2 -111 -11z"/>
<path d="M5742 5145 c-166 -51 -267 -250 -197 -386 22 -41 79 -85 135 -104
134 -45 302 29 365 160 41 87 28 204 -31 275 -50 59 -177 85 -272 55z"/>
<path d="M3883 4363 c9 -2 23 -2 30 0 6 3 -1 5 -18 5 -16 0 -22 -2 -12 -5z"/>
<path d="M3948 4363 c6 -2 18 -2 25 0 6 3 1 5 -13 5 -14 0 -19 -2 -12 -5z"/>
<path d="M2043 4353 c9 -2 23 -2 30 0 6 3 -1 5 -18 5 -16 0 -22 -2 -12 -5z"/>
<path d="M2098 4353 c6 -2 18 -2 25 0 6 3 1 5 -13 5 -14 0 -19 -2 -12 -5z"/>
<path d="M1820 4340 c-9 -6 -10 -10 -3 -10 6 0 15 5 18 10 8 12 4 12 -15 0z"/>
<path d="M1888 4343 c6 -2 18 -2 25 0 6 3 1 5 -13 5 -14 0 -19 -2 -12 -5z"/>
<path d="M5265 4330 c-6 -9 -15 -118 -70 -780 -8 -102 -18 -206 -21 -232 l-6
-48 110 0 111 0 5 53 c9 75 35 470 37 547 1 36 4 71 7 78 2 7 28 -49 57 -125
29 -76 80 -209 114 -295 l62 -158 82 0 82 0 100 247 c55 136 107 266 115 290
18 52 40 77 33 38 -6 -27 13 -501 23 -612 l6 -63 129 0 129 0 0 48 c0 26 -4
119 -10 207 -14 234 -31 542 -39 685 l-6 125 -134 0 -134 0 -89 -210 c-48
-115 -107 -258 -130 -318 -23 -59 -45 -104 -49 -100 -4 5 -12 26 -19 48 -7 22
-50 135 -95 250 -45 116 -90 233 -100 260 -10 28 -23 56 -28 63 -12 15 -263
17 -272 2z m272 -28 c30 -84 234 -605 239 -611 9 -10 32 23 43 61 7 23 20 52
28 65 8 13 13 23 10 23 -3 0 17 51 45 113 27 61 51 119 53 127 2 9 17 45 33
80 16 36 39 86 50 113 l21 47 119 0 120 0 5 -52 c4 -29 9 -116 12 -193 3 -77
8 -171 10 -210 5 -65 35 -567 35 -572 0 -2 -53 -3 -119 -3 l-118 0 -7 88 c-3
48 -8 186 -12 307 -8 287 -8 288 -18 304 -11 17 -18 1 -117 -252 -19 -47 -35
-75 -41 -71 -7 4 -8 2 -4 -5 6 -10 -70 -222 -93 -259 -5 -9 -35 -15 -79 -18
l-70 -4 -18 48 c-10 26 -33 85 -52 132 -68 168 -109 276 -127 329 -9 29 -23
64 -30 77 -12 23 -12 23 -23 -14 -6 -20 -14 -84 -17 -142 -3 -58 -7 -123 -9
-145 -2 -22 -8 -85 -12 -140 -4 -55 -8 -113 -10 -130 -1 -16 -3 -47 -3 -67
l-1 -38 -96 0 -96 0 6 73 c11 143 27 334 36 442 13 146 34 414 39 492 1 19 7
22 54 25 28 2 87 2 130 0 62 -3 79 -7 84 -20z"/>
<path d="M6176 4267 c3 -10 9 -15 12 -12 3 3 0 11 -7 18 -10 9 -11 8 -5 -6z"/>
<path d="M6200 4264 c0 -8 5 -12 10 -9 6 4 8 11 5 16 -9 14 -15 11 -15 -7z"/>
<path d="M6245 4159 c-4 -6 -5 -12 -2 -15 2 -3 7 2 10 11 7 17 1 20 -8 4z"/>
<path d="M6040 4079 c0 -5 5 -7 10 -4 6 3 10 8 10 11 0 2 -4 4 -10 4 -5 0 -10
-5 -10 -11z"/>
<path d="M6258 4023 c7 -3 16 -2 19 1 4 3 -2 6 -13 5 -11 0 -14 -3 -6 -6z"/>
<path d="M6005 3971 c-3 -5 -2 -12 3 -15 5 -3 9 1 9 9 0 17 -3 19 -12 6z"/>
<path d="M6239 3903 c-13 -16 -12 -17 4 -4 9 7 17 15 17 17 0 8 -8 3 -21 -13z"/>
<path d="M6230 3780 c-9 -6 -10 -10 -3 -10 6 0 15 5 18 10 8 12 4 12 -15 0z"/>
<path d="M6156 3742 c-3 -5 1 -9 9 -9 8 0 15 4 15 9 0 4 -4 8 -9 8 -6 0 -12
-4 -15 -8z"/>
<path d="M6120 3729 c0 -5 5 -7 10 -4 6 3 10 8 10 11 0 2 -4 4 -10 4 -5 0 -10
-5 -10 -11z"/>
<path d="M6237 3689 c7 -7 15 -10 18 -7 3 3 -2 9 -12 12 -14 6 -15 5 -6 -5z"/>
<path d="M6270 3689 c0 -5 5 -7 10 -4 6 3 10 8 10 11 0 2 -4 4 -10 4 -5 0 -10
-5 -10 -11z"/>
<path d="M5737 3515 c3 -8 9 -12 14 -9 12 7 11 11 -5 17 -10 4 -13 1 -9 -8z"/>
<path d="M5296 3502 c-3 -5 1 -9 9 -9 8 0 12 4 9 9 -3 4 -7 8 -9 8 -2 0 -6 -4
-9 -8z"/>
<path d="M5305 3470 c-3 -5 -1 -10 4 -10 6 0 11 5 11 10 0 6 -2 10 -4 10 -3 0
-8 -4 -11 -10z"/>
<path d="M6130 3445 c0 -8 4 -15 10 -15 5 0 7 7 4 15 -4 8 -8 15 -10 15 -2 0
-4 -7 -4 -15z"/>
<path d="M5698 3443 c-9 -2 -16 -13 -15 -23 1 -10 5 -16 9 -14 5 3 6 9 3 14
-8 13 32 19 46 6 10 -8 10 -7 0 7 -7 9 -16 16 -20 16 -3 -1 -14 -3 -23 -6z"/>
<path d="M5325 3410 c-3 -5 1 -13 10 -16 22 -9 29 1 11 15 -10 8 -16 9 -21 1z"/>
<path d="M6205 3350 c-3 -5 -1 -10 4 -10 6 0 11 5 11 10 0 6 -2 10 -4 10 -3 0
-8 -4 -11 -10z"/>
<path d="M2325 4320 c3 -5 14 -10 23 -10 15 0 15 2 2 10 -20 13 -33 13 -25 0z"/>
<path d="M4176 4315 c4 -8 11 -15 16 -15 6 0 5 6 -2 15 -7 8 -14 15 -16 15 -2
0 -1 -7 2 -15z"/>
<path d="M2370 4306 c0 -2 7 -7 16 -10 8 -3 12 -2 9 4 -6 10 -25 14 -25 6z"/>
<path d="M2470 4245 c0 -2 10 -10 23 -16 20 -11 21 -11 8 4 -13 16 -31 23 -31
12z"/>
<path d="M3530 4229 c0 -5 5 -7 10 -4 6 3 10 8 10 11 0 2 -4 4 -10 4 -5 0 -10
-5 -10 -11z"/>
<path d="M7937 4233 c-3 -5 -8 -56 -12 -115 l-7 -107 -41 -3 c-42 -3 -42 -3
-45 -45 -2 -24 1 -43 5 -43 5 0 7 16 5 35 -4 35 -4 35 36 35 46 0 48 4 57 92
3 35 8 82 11 106 l5 42 90 0 89 0 0 -119 0 -120 105 2 105 2 0 -62 c0 -43 -4
-63 -12 -64 -7 -1 -54 -2 -104 -4 -97 -2 -121 -9 -105 -28 5 -7 9 -87 8 -179
0 -108 4 -176 12 -195 24 -59 108 -79 196 -48 21 8 41 13 42 11 2 -2 6 -26 10
-54 6 -57 0 -63 -83 -83 -124 -28 -242 -18 -307 25 -62 41 -67 66 -67 313 0
137 -4 224 -10 228 -14 9 -13 -408 1 -460 16 -58 75 -110 142 -125 78 -18 218
-8 290 19 57 22 58 23 52 57 -3 19 -7 49 -10 68 l-5 34 -40 -14 c-100 -35
-174 -23 -199 32 -7 16 -11 92 -11 204 l0 180 109 0 109 0 1 80 0 80 -109 0
-110 0 0 115 0 115 -99 0 c-55 0 -102 -3 -104 -7z"/>
<path d="M3502 4183 c-6 -16 -14 -41 -16 -58 -4 -18 0 -13 9 14 8 24 20 49 26
57 7 8 7 14 1 14 -5 0 -14 -12 -20 -27z"/>
<path d="M2028 4183 c7 -3 16 -2 19 1 4 3 -2 6 -13 5 -11 0 -14 -3 -6 -6z"/>
<path d="M3948 4173 c7 -3 16 -2 19 1 4 3 -2 6 -13 5 -11 0 -14 -3 -6 -6z"/>
<path d="M2220 4160 c0 -5 5 -10 11 -10 5 0 7 5 4 10 -3 6 -8 10 -11 10 -2 0
-4 -4 -4 -10z"/>
<path d="M4078 4143 c7 -3 16 -2 19 1 4 3 -2 6 -13 5 -11 0 -14 -3 -6 -6z"/>
<path d="M2601 4034 c0 -11 3 -14 6 -6 3 7 2 16 -1 19 -3 4 -6 -2 -5 -13z"/>
<path d="M2978 4023 c7 -3 16 -2 19 1 4 3 -2 6 -13 5 -11 0 -14 -3 -6 -6z"/>
<path d="M3098 4023 c6 -2 18 -2 25 0 6 3 1 5 -13 5 -14 0 -19 -2 -12 -5z"/>
<path d="M6690 4015 c-36 -8 -94 -30 -130 -48 l-65 -34 2 -69 c3 -114 -3 -107
58 -73 119 67 275 90 329 48 19 -15 26 -30 26 -53 0 -33 -1 -33 -57 -40 -88
-10 -201 -35 -241 -54 -132 -59 -193 -174 -158 -294 27 -94 96 -138 215 -138
84 0 161 26 210 70 18 17 35 29 38 26 3 -2 7 -23 10 -45 l6 -41 111 0 111 0
-3 267 c-1 148 -7 292 -13 321 -14 68 -59 120 -125 146 -66 25 -236 31 -324
11z m300 -20 c134 -44 138 -56 144 -422 l5 -283 -90 0 c-49 0 -92 0 -96 -1 -5
0 -13 19 -19 43 -11 43 -30 52 -47 22 -12 -20 -85 -60 -140 -74 -61 -16 -145
-8 -204 21 -57 27 -82 78 -83 162 0 98 47 164 152 212 53 24 191 55 268 59 34
2 35 4 38 44 4 55 -29 91 -85 93 -21 1 -45 2 -53 3 -28 2 -157 -34 -211 -59
l-54 -25 -7 53 c-4 28 -5 59 -2 68 9 30 165 94 249 101 80 7 185 0 235 -17z"/>
<path d="M6803 3641 c-69 -24 -99 -45 -119 -83 -19 -36 -15 -109 8 -131 32
-33 104 -38 171 -12 39 15 48 23 52 49 8 40 12 167 7 184 -6 17 -57 14 -119
-7z m107 -85 l0 -95 -32 -22 c-21 -16 -51 -24 -89 -27 -51 -4 -60 -2 -83 21
-29 29 -33 62 -12 110 15 38 48 62 120 87 96 34 96 34 96 -74z"/>
<path d="M6565 3351 c-3 -5 0 -13 6 -17 7 -4 9 -3 5 4 -3 6 2 13 11 15 16 4
16 5 1 6 -9 0 -19 -3 -23 -8z"/>
<path d="M6990 3340 c-8 -5 -10 -10 -5 -10 6 0 17 5 25 10 8 5 11 10 5 10 -5
0 -17 -5 -25 -10z"/>
<path d="M6618 3293 c7 -3 16 -2 19 1 4 3 -2 6 -13 5 -11 0 -14 -3 -6 -6z"/>
<path d="M2928 4013 c7 -3 16 -2 19 1 4 3 -2 6 -13 5 -11 0 -14 -3 -6 -6z"/>
<path d="M4400 4008 c0 -4 21 -8 47 -8 25 0 44 2 41 5 -8 9 -88 12 -88 3z"/>
<path d="M3259 3980 c30 -17 56 -29 58 -27 4 5 -92 57 -103 57 -5 0 15 -14 45
-30z"/>
<path d="M4298 4003 c6 -2 18 -2 25 0 6 3 1 5 -13 5 -14 0 -19 -2 -12 -5z"/>
<path d="M4518 4003 c10 -4 12 -50 12 -205 -1 -110 1 -202 4 -206 3 -3 6 90 6
206 0 196 -1 212 -17 211 -12 0 -13 -2 -5 -6z"/>
<path d="M4781 3993 c0 -11 3 -13 6 -5 3 9 38 12 123 12 l119 0 4 -107 3 -108
2 113 2 112 -130 0 c-117 0 -130 -2 -129 -17z"/>
<path d="M7260 3640 l0 -370 120 0 120 0 0 175 c0 136 4 184 15 213 33 78 92
114 192 116 l63 1 0 118 0 117 -38 0 c-57 0 -137 -45 -183 -102 -21 -27 -39
-55 -39 -61 0 -13 4 -8 44 46 15 21 32 34 38 31 7 -4 8 -2 4 4 -7 11 26 38 54
44 8 2 17 6 20 10 3 3 22 9 42 13 l36 7 4 -89 c4 -121 4 -123 -45 -123 -43 0
-119 -19 -128 -33 -3 -4 -12 -7 -19 -5 -8 2 -14 -2 -15 -9 0 -7 -8 -22 -19
-34 -30 -36 -36 -76 -36 -251 l0 -168 -110 0 -110 0 0 350 0 350 95 0 c52 0
98 0 103 0 4 0 10 -35 13 -77 l5 -78 2 88 2 87 -115 0 -115 0 0 -370z"/>
<path d="M3481 3974 c0 -11 3 -14 6 -6 3 7 2 16 -1 19 -3 4 -6 -2 -5 -13z"/>
<path d="M8089 3977 c6 -8 7 -18 3 -22 -4 -5 -1 -5 6 -1 10 6 10 11 1 22 -6 8
-14 14 -16 14 -3 0 0 -6 6 -13z"/>
<path d="M2371 3964 c0 -11 3 -14 6 -6 3 7 2 16 -1 19 -3 4 -6 -2 -5 -13z"/>
<path d="M2825 3968 c-29 -16 -64 -49 -88 -83 -12 -18 -1 -10 29 20 27 28 58
55 69 62 25 15 17 16 -10 1z"/>
<path d="M3817 3969 c7 -7 15 -10 18 -7 3 3 -2 9 -12 12 -14 6 -15 5 -6 -5z"/>
<path d="M8258 3973 c12 -2 30 -2 40 0 9 3 -1 5 -23 4 -22 0 -30 -2 -17 -4z"/>
<path d="M8116 3953 c-6 -14 -5 -15 5 -6 7 7 10 15 7 18 -3 3 -9 -2 -12 -12z"/>
<path d="M2623 3900 c0 -36 2 -50 4 -32 2 17 2 47 0 65 -2 17 -4 3 -4 -33z"/>
<path d="M8267 3946 c-4 -10 -1 -13 8 -9 8 3 12 9 9 14 -7 12 -11 11 -17 -5z"/>
<path d="M3490 3945 c0 -5 5 -17 10 -25 5 -8 10 -10 10 -5 0 6 -5 17 -10 25
-5 8 -10 11 -10 5z"/>
<path d="M4292 3925 c0 -16 2 -22 5 -12 2 9 2 23 0 30 -3 6 -5 -1 -5 -18z"/>
<path d="M3937 3919 c7 -7 15 -10 18 -7 3 3 -2 9 -12 12 -14 6 -15 5 -6 -5z"/>
<path d="M4781 3914 c0 -11 3 -14 6 -6 3 7 2 16 -1 19 -3 4 -6 -2 -5 -13z"/>
<path d="M2382 3895 c0 -16 2 -22 5 -12 2 9 2 23 0 30 -3 6 -5 -1 -5 -18z"/>
<path d="M8160 3911 c0 -6 5 -13 10 -16 6 -3 10 1 10 9 0 9 -4 16 -10 16 -5 0
-10 -4 -10 -9z"/>
<path d="M3975 3900 c3 -5 14 -10 23 -10 15 0 15 2 2 10 -20 13 -33 13 -25 0z"/>
<path d="M8045 3890 c-3 -5 -1 -10 4 -10 6 0 11 5 11 10 0 6 -2 10 -4 10 -3 0
-8 -4 -11 -10z"/>
<path d="M4293 3855 c0 -22 2 -30 4 -17 2 12 2 30 0 40 -3 9 -5 -1 -4 -23z"/>
<path d="M2985 3870 c-3 -6 1 -7 9 -4 18 7 21 14 7 14 -6 0 -13 -4 -16 -10z"/>
<path d="M3080 3876 c0 -2 9 -6 20 -9 11 -3 18 -1 14 4 -5 9 -34 13 -34 5z"/>
<path d="M4030 3876 c0 -2 7 -7 16 -10 8 -3 12 -2 9 4 -6 10 -25 14 -25 6z"/>
<path d="M1997 3848 c-3 -13 -2 -39 3 -58 7 -32 8 -31 9 23 1 60 -3 72 -12 35z"/>
<path d="M7840 3860 c18 -12 60 -13 60 -2 0 4 -17 8 -37 9 -26 1 -33 -1 -23
-7z"/>
<path d="M4118 3820 c23 -23 45 -41 48 -38 2 3 -17 22 -43 43 l-48 38 43 -43z"/>
<path d="M2622 3795 c-1 -22 -4 -58 -7 -80 l-5 -40 11 40 c5 22 8 58 6 80 l-4
40 -1 -40z"/>
<path d="M4293 3775 c0 -22 2 -30 4 -17 2 12 2 30 0 40 -3 9 -5 -1 -4 -23z"/>
<path d="M7980 3799 c0 -5 5 -7 10 -4 6 3 10 8 10 11 0 2 -4 4 -10 4 -5 0 -10
-5 -10 -11z"/>
<path d="M8101 3784 c0 -11 3 -14 6 -6 3 7 2 16 -1 19 -3 4 -6 -2 -5 -13z"/>
<path d="M3421 3774 c0 -11 3 -14 6 -6 3 7 2 16 -1 19 -3 4 -6 -2 -5 -13z"/>
<path d="M7314 3776 c1 -8 5 -18 8 -22 4 -3 5 1 4 10 -1 8 -5 18 -8 22 -4 3
-5 -1 -4 -10z"/>
<path d="M5031 3764 c0 -11 3 -14 6 -6 3 7 2 16 -1 19 -3 4 -6 -2 -5 -13z"/>
<path d="M3187 3730 c3 -25 7 -47 9 -49 8 -9 2 55 -6 74 -6 13 -7 5 -3 -25z"/>
<path d="M2381 3734 c0 -11 3 -14 6 -6 3 7 2 16 -1 19 -3 4 -6 -2 -5 -13z"/>
<path d="M5029 3708 c-1 -18 -1 -121 0 -229 l2 -196 -57 -2 c-81 -2 -81 -11
-1 -11 l67 0 0 235 c0 129 -2 235 -5 235 -3 0 -6 -15 -6 -32z"/>
<path d="M2672 3700 c0 -14 2 -19 5 -12 2 6 2 18 0 25 -3 6 -5 1 -5 -13z"/>
<path d="M3432 3695 c0 -16 2 -22 5 -12 2 9 2 23 0 30 -3 6 -5 -1 -5 -18z"/>
<path d="M2371 3664 c0 -11 3 -14 6 -6 3 7 2 16 -1 19 -3 4 -6 -2 -5 -13z"/>
<path d="M2903 3645 c0 -22 2 -30 4 -17 2 12 2 30 0 40 -3 9 -5 -1 -4 -23z"/>
<path d="M4292 3650 c0 -19 2 -27 5 -17 2 9 2 25 0 35 -3 9 -5 1 -5 -18z"/>
<path d="M2003 3635 c0 -22 2 -30 4 -17 2 12 2 30 0 40 -3 9 -5 -1 -4 -23z"/>
<path d="M3192 3630 c0 -19 2 -27 5 -17 2 9 2 25 0 35 -3 9 -5 1 -5 -18z"/>
<path d="M3432 3635 c0 -16 2 -22 5 -12 2 9 2 23 0 30 -3 6 -5 -1 -5 -18z"/>
<path d="M2586 3615 c-3 -8 -1 -15 4 -15 6 0 10 7 10 15 0 8 -2 15 -4 15 -2 0
-6 -7 -10 -15z"/>
<path d="M4221 3614 c0 -11 3 -14 6 -6 3 7 2 16 -1 19 -3 4 -6 -2 -5 -13z"/>
<path d="M2293 3534 c-52 -54 -42 -61 11 -8 23 24 53 67 44 63 -2 -1 -26 -25
-55 -55z"/>
<path d="M4532 3555 c0 -16 2 -22 5 -12 2 9 2 23 0 30 -3 6 -5 -1 -5 -18z"/>
<path d="M2551 3543 c-1 -6 -4 -20 -7 -30 -5 -17 -5 -17 6 0 6 10 9 23 6 30
-3 9 -5 9 -5 0z"/>
<path d="M4291 3514 c0 -11 3 -14 6 -6 3 7 2 16 -1 19 -3 4 -6 -2 -5 -13z"/>
<path d="M7986 3493 c-6 -14 -5 -15 5 -6 7 7 10 15 7 18 -3 3 -9 -2 -12 -12z"/>
<path d="M2691 3484 c0 -11 3 -14 6 -6 3 7 2 16 -1 19 -3 4 -6 -2 -5 -13z"/>
<path d="M8033 3487 c0 -8 6 -14 14 -14 9 0 10 4 2 14 -6 7 -12 13 -14 13 -1
0 -2 -6 -2 -13z"/>
<path d="M3645 3475 c22 -8 49 -13 60 -13 11 0 -2 6 -30 14 -63 17 -84 16 -30
-1z"/>
<path d="M3910 3473 c-14 -7 -18 -13 -10 -13 17 0 47 17 40 23 -3 2 -16 -2
-30 -10z"/>
<path d="M4292 3465 c0 -16 2 -22 5 -12 2 9 2 23 0 30 -3 6 -5 -1 -5 -18z"/>
<path d="M2505 3470 c-3 -5 -1 -10 4 -10 6 0 11 5 11 10 0 6 -2 10 -4 10 -3 0
-8 -4 -11 -10z"/>
<path d="M2165 3460 c-13 -5 -14 -9 -5 -9 8 0 24 4 35 9 13 5 14 9 5 9 -8 0
-24 -4 -35 -9z"/>
<path d="M4710 3460 c-8 -5 -10 -10 -5 -10 6 0 17 5 25 10 8 5 11 10 5 10 -5
0 -17 -5 -25 -10z"/>
<path d="M3755 3450 c17 -4 39 -8 50 -8 16 0 15 2 -5 8 -14 4 -36 8 -50 8 -22
0 -22 -1 5 -8z"/>
<path d="M3858 3453 c7 -3 16 -2 19 1 4 3 -2 6 -13 5 -11 0 -14 -3 -6 -6z"/>
<path d="M2058 3443 c7 -3 16 -2 19 1 4 3 -2 6 -13 5 -11 0 -14 -3 -6 -6z"/>
<path d="M4608 3443 c6 -2 18 -2 25 0 6 3 1 5 -13 5 -14 0 -19 -2 -12 -5z"/>
<path d="M4658 3443 c6 -2 18 -2 25 0 6 3 1 5 -13 5 -14 0 -19 -2 -12 -5z"/>
<path d="M2469 3423 c-13 -16 -12 -17 4 -4 9 7 17 15 17 17 0 8 -8 3 -21 -13z"/>
<path d="M2710 3429 c0 -3 11 -20 25 -39 14 -19 25 -30 25 -24 -1 10 -50 73
-50 63z"/>
<path d="M3060 3410 l-45 -7 42 -1 c23 -1 45 3 48 8 3 6 5 9 3 8 -2 0 -23 -4
-48 -8z"/>
<path d="M2424 3388 l-19 -23 23 19 c21 18 27 26 19 26 -2 0 -12 -10 -23 -22z"/>
<path d="M7966 3398 c3 -5 10 -6 15 -3 13 9 11 12 -6 12 -8 0 -12 -4 -9 -9z"/>
<path d="M4120 3358 c-19 -16 -26 -26 -15 -20 18 9 64 53 54 52 -2 -1 -20 -15
-39 -32z"/>
<path d="M8030 3366 c6 -6 18 -5 32 1 21 10 21 10 -9 9 -19 -1 -28 -5 -23 -10z"/>
<path d="M2350 3345 c-14 -8 -20 -14 -15 -14 6 0 21 6 35 14 14 8 21 14 15 14
-5 0 -21 -6 -35 -14z"/>
<path d="M3290 3334 c-47 -34 -51 -39 -14 -21 17 9 36 23 43 31 17 21 13 19
-29 -10z"/>
<path d="M7326 3349 c2 -4 13 -7 24 -6 23 2 17 10 -10 12 -10 1 -17 -2 -14 -6z"/>
<path d="M8253 3343 c0 -9 4 -10 14 -2 7 6 13 12 13 14 0 1 -6 2 -13 2 -8 0
-14 -6 -14 -14z"/>
<path d="M2800 3325 c19 -14 36 -25 39 -25 10 0 -53 49 -63 50 -6 0 5 -11 24
-25z"/>
<path d="M8133 3333 c0 -10 4 -10 16 -1 9 7 18 13 20 15 2 1 -5 1 -16 0 -11 0
-20 -7 -20 -14z"/>
<path d="M2265 3315 c-39 -17 -21 -18 25 0 19 7 28 14 20 14 -8 0 -28 -6 -45
-14z"/>
<path d="M4361 3305 c15 -15 31 -26 37 -24 5 2 -7 14 -27 27 l-36 24 26 -27z"/>
<path d="M4704 3315 c-10 -8 -14 -15 -8 -15 6 0 17 7 24 15 16 19 9 19 -16 0z"/>
<path d="M8275 3310 c-3 -5 -1 -10 4 -10 6 0 11 5 11 10 0 6 -2 10 -4 10 -3 0
-8 -4 -11 -10z"/>
<path d="M2193 3293 c9 -2 23 -2 30 0 6 3 -1 5 -18 5 -16 0 -22 -2 -12 -5z"/>
<path d="M3215 3290 c-3 -6 1 -7 9 -4 18 7 21 14 7 14 -6 0 -13 -4 -16 -10z"/>
<path d="M4650 3290 c-8 -5 -10 -10 -5 -10 6 0 17 5 25 10 8 5 11 10 5 10 -5
0 -17 -5 -25 -10z"/>
<path d="M4790 3292 c0 -12 19 -26 26 -19 2 2 -2 10 -11 17 -9 8 -15 8 -15 2z"/>
<path d="M1795 3279 c11 -4 67 -7 125 -7 128 0 113 5 -35 11 -60 2 -101 0 -90
-4z"/>
<path d="M2073 3283 c15 -2 37 -2 50 0 12 2 0 4 -28 4 -27 0 -38 -2 -22 -4z"/>
<path d="M3165 3280 c-16 -7 -17 -9 -3 -9 9 -1 20 4 23 9 7 11 7 11 -20 0z"/>
<path d="M3611 3286 c12 -10 60 -16 54 -6 -3 5 -18 10 -32 10 -15 0 -24 -2
-22 -4z"/>
<path d="M3958 3283 c6 -2 18 -2 25 0 6 3 1 5 -13 5 -14 0 -19 -2 -12 -5z"/>
<path d="M2930 3270 c14 -4 34 -8 45 -8 16 0 15 2 -5 8 -14 4 -34 8 -45 8 -16
0 -15 -2 5 -8z"/>
<path d="M4608 3273 c7 -3 16 -2 19 1 4 3 -2 6 -13 5 -11 0 -14 -3 -6 -6z"/>
<path d="M4858 3273 c6 -2 18 -2 25 0 6 3 1 5 -13 5 -14 0 -19 -2 -12 -5z"/>
<path d="M3048 3263 c17 -2 47 -2 65 0 17 2 3 4 -33 4 -36 0 -50 -2 -32 -4z"/>
<path d="M3773 3263 c20 -2 54 -2 75 0 20 2 3 4 -38 4 -41 0 -58 -2 -37 -4z"/>
<path d="M4553 3263 c9 -2 23 -2 30 0 6 3 -1 5 -18 5 -16 0 -22 -2 -12 -5z"/>
</g>
</svg>
